<svg width="279" height="52" viewBox="0 0 279 52" fill="none" xmlns="http://www.w3.org/2000/svg">
<g clip-path="url(#clip0_10338_2606)">
<path d="M2.67939 11.2134H24.5296L24.0214 16.9723H8.4807L7.93021 23.0701H21.6501L21.142 28.829H7.42206L6.44813 39.9659H0.138672L2.63704 11.2557L2.67939 11.2134ZM26.9009 32.1743L28.1289 17.9463H34.3537L33.2951 30.2265C33.041 33.1906 34.269 34.715 36.6827 34.715C39.0964 34.715 40.7055 33.1906 40.9596 30.2265L42.0182 17.9463H48.243L46.3374 39.9235H40.1127L40.3667 36.79C38.7576 38.6532 36.7251 40.3046 33.6338 40.3046C28.8912 40.3046 26.4351 37.2134 26.9009 32.132V32.1743ZM53.8749 17.9463H60.0997L59.8456 21.0799C61.4547 19.2167 63.4873 17.5652 66.5785 17.5652C71.3212 17.5652 73.7772 20.6564 73.3114 25.7378L72.0834 39.9659H65.8586L66.9173 27.6857C67.1713 24.7216 65.9433 23.1971 63.5296 23.1971C61.116 23.1971 59.5068 24.7216 59.2528 27.6857L58.1941 39.9659H51.9694L53.8749 17.9886V17.9463ZM78.1388 26.2036V26.1189C78.8587 17.9463 85.888 11.2557 94.7382 11.2557C103.588 11.2557 109.39 17.8616 108.67 26.0343V26.1189C107.95 34.2916 100.921 40.9822 92.0704 40.9822C83.2202 40.9822 77.4189 34.3763 78.1388 26.2036ZM102.064 25.6531V25.5685C102.487 20.6564 99.2691 16.5489 94.1453 16.5489C89.0216 16.5489 85.1681 20.5717 84.7447 25.4838V25.5685C84.3212 30.4805 87.5395 34.588 92.6633 34.588C97.787 34.588 101.64 30.5652 102.064 25.6531ZM114.302 17.9463H120.526L120.272 21.0799C121.882 19.2167 123.914 17.5652 127.005 17.5652C131.748 17.5652 134.204 20.6564 133.738 25.7378L132.51 39.9659H126.285L127.344 27.6857C127.598 24.7216 126.37 23.1971 123.956 23.1971C121.543 23.1971 119.934 24.7216 119.68 27.6857L118.621 39.9659H112.396L114.302 17.9886V17.9463ZM137.803 29.0408V28.9561C138.354 22.689 143.266 17.5228 149.702 17.5228C156.139 17.5228 159.908 23.2395 159.357 29.4642C159.315 29.9724 159.23 30.4805 159.145 31.1157H143.859C144.24 33.9528 146.061 35.4349 148.856 35.4349C151.65 35.4349 152.497 34.7997 154.403 33.1906L157.706 36.3665C155.377 38.9496 152.328 40.474 148.347 40.474C141.741 40.474 137.253 35.8584 137.846 29.1255L137.803 29.0408ZM153.471 27.2199C153.344 24.4251 151.862 22.5619 149.237 22.5619C146.611 22.5619 144.79 24.4251 144.07 27.2199H153.471Z" fill="#313131"/>
<path d="M181 22.2195H174.268L174.564 18.7895H191.714L191.417 22.2195H184.685L183.118 39.9199H179.391L180.958 22.2195H181ZM194.382 23.9557H198.066L196.668 39.8775H192.984L194.382 23.9557ZM194.763 18.0696H198.701L198.404 21.542H194.466L194.763 18.0696ZM201.242 32.0013C201.623 27.428 205.476 23.6169 210.261 23.6169C215.046 23.6169 215.004 24.7179 216.401 26.3693L213.903 28.8254C212.887 27.6397 211.786 26.8351 209.965 26.8351C207.297 26.8351 205.137 29.1218 204.926 31.9166C204.672 34.7961 206.45 37.0827 209.245 37.0827C212.04 37.0827 212.251 36.2782 213.564 35.1348L215.597 37.2944C213.86 39.0729 211.913 40.3009 208.821 40.3009C204.079 40.3009 200.903 36.5746 201.326 32.0436L201.242 32.0013ZM220.551 17.8579H224.235L223.092 31.0273L230.333 23.9557H234.779L227.877 30.4345L233.593 39.8775H229.317L225.209 32.9752L222.753 35.3466L222.372 39.9199H218.688L220.636 17.9003L220.551 17.8579ZM235.287 32.0013C235.668 27.3433 239.225 23.6592 243.799 23.6592C248.372 23.6592 251.082 27.6397 250.701 32.213C250.701 32.5518 250.616 32.8905 250.532 33.2293H238.844C239.014 35.8547 240.707 37.2521 243.079 37.2521C245.45 37.2521 246.17 36.5746 247.567 35.3466L249.558 37.2521C247.864 39.073 245.704 40.2586 242.782 40.2586C238.209 40.2586 234.906 36.9133 235.33 32.0013H235.287ZM247.186 30.8156C247.186 28.4866 245.916 26.6234 243.502 26.6234C241.089 26.6234 239.564 28.3172 239.014 30.8156H247.186ZM254.808 35.4736L255.528 27.0892H253.496L253.75 23.9557H255.782L256.163 19.5941H259.805L259.424 23.9557H263.701L263.447 27.0892H259.17L258.492 34.9231C258.365 36.3205 259.043 36.9133 260.271 36.9133C261.499 36.9133 261.838 36.7439 262.6 36.3628L262.346 39.3694C261.372 39.8775 260.398 40.1739 259.001 40.1739C256.333 40.1739 254.512 38.9882 254.808 35.5159V35.4736ZM264.971 37.8026L266.835 35.3466C268.486 36.6593 270.222 37.2944 271.874 37.2944C273.525 37.2944 274.414 36.6169 274.499 35.5583C274.584 34.2879 272.975 33.8221 271.154 33.2716C268.867 32.6364 266.326 31.6625 266.58 28.6136C266.835 25.5224 269.502 23.6592 272.678 23.6592C275.854 23.6592 276.786 24.3367 278.352 25.4801L276.659 28.0632C275.219 27.1316 273.61 26.5387 272.297 26.5387C270.984 26.5387 270.01 27.2162 269.926 28.1055C269.841 29.3335 271.492 29.8416 273.313 30.4345C275.558 31.1544 278.098 32.213 277.844 35.0925C277.548 38.5224 274.795 40.1739 271.492 40.1739C268.19 40.1739 266.835 39.3694 264.929 37.8026H264.971Z" fill="#959595"/>
</g>
<defs>
<clipPath id="clip0_10338_2606">
<rect width="278.41" height="52" fill="white"/>
</clipPath>
</defs>
</svg>
